<svg width="1000" viewBox="0 0 1000 500" xmlns="http://www.w3.org/2000/svg">
    <style>
        #swirl1 {
        animation: 83s linear infinite move-swirl1;
        }

        #swirl2 {
        animation: 19s linear infinite move-swirl2;
        }

        #swirl3 {
        animation: 111s linear infinite move-swirl3;
        }

        @media (prefers-reduced-motion: reduce) {
        #swirl1, #swirl2, #swirl3 {
        animation: none;
        }
        }

        @keyframes move-swirl1 {
        from {
        transform: translate(0);
        }
        to {
        transform: translate(-1000px);
        }
        }
        @keyframes move-swirl2 {
        from {
        transform: translate(0);
        }
        to {
        transform: translate(-700px);
        }
        }
        @keyframes move-swirl3 {
        from {
        transform: translate(0);
        }
        to {
        transform: translate(-800px);
        }
        }

        text {
        font-family: Trebuchet MS, sans-serif;
        }
        .name {
        font-size: 40px
        }
        .profession {
        font-size: 28px
        }
    </style>

	<g>
    <path id="swirl1" d="M-275 244 C -68 340, 18 340, 225 244 C 432 148, 518 148, 725 244 C 932 340, 1018 340, 1225 244 C 1432 148, 1518 148, 1725 244 C 1932 340, 2018 340, 2225 244 C 2432 148, 2518 148, 2725 244"
          stroke-width="275" fill="transparent" stroke="hsla(184, 100%, 43.1%, 0.588)"
          style="transform: translate(-55.96px);"></path>
    <path id="swirl2" d="M-146 289 C -1.1 333, 59.1 333, 204 289 C 348.9 245, 409.1 245, 554 289 C 698.9 333, 759.1 333, 904 289 C 1048.9 245, 1109.1 245, 1254 289 C 1398.9 333, 1459.1 333, 1604 289 C 1748.9 245, 1809.1 245, 1954 289 C 2098.9 333, 2159.1 333, 2304 289 C 2448.9 245, 2509.1 245, 2654 289"
          stroke-width="146" fill="transparent" stroke="hsla(181, 74.3%, 37.7%, 0.628)"
          style="transform: translate(-170.678px);"></path>
    <path id="swirl3" d="M-40 177 C 125.6 210, 194.4 210, 360 177 C 525.6 144, 594.4 144, 760 177 C 925.6 210, 994.4 210, 1160 177 C 1325.6 144, 1394.4 144, 1560 177 C 1725.6 210, 1794.4 210, 1960 177 C 2125.6 144, 2194.4 144, 2360 177 C 2525.6 210, 2594.4 210, 2760 177 C 2925.6 144, 2994.4 144, 3160 177"
          stroke-width="40" fill="transparent" stroke="hsla(52, 100%, 54.9%, 0.628)"
          style="transform: translate(-33.576px);"></path>
    </g>

    <text x="370" y="200" class="name">Edwin Martin</text>
    <text x="370" y="250" class="profession">Frontend engineer</text>

</svg>

