<svg width="1000" viewBox="0 0 1000 500" xmlns="http://www.w3.org/2000/svg">
	<style>
		#swirl1 {
            animation: 83s linear infinite move-swirl1;
        }

        #swirl2 {
            animation: 19s linear infinite move-swirl2;
        }

        #swirl3 {
            animation: 111s linear infinite move-swirl3;
        }

        @media (prefers-reduced-motion: reduce) {
            #swirl1, #swirl2, #swirl3 {
                animation: none;
            }
        }

        @keyframes move-swirl1 {
            from {
                transform: translate(0);
            }
            to {
                transform: translate(-1000px);
            }
        }
        @keyframes move-swirl2 {
            from {
                transform: translate(0);
            }
            to {
                transform: translate(-700px);
            }
        }
        @keyframes move-swirl3 {
            from {
                transform: translate(0);
            }
            to {
                transform: translate(-800px);
            }
        }
	</style>

    <path d="M284.871287,167.368228 L284.871287,174.207174 L296.257426,174.207174 L296.257426,178.792826 L284.871287,178.792826 L284.871287,185.631772 L298,185.631772 L298,190 L280,190 L280,163 L298,163 L298,167.368228 L284.871287,167.368228 Z M302,179.458362 C302,176.192659 302.777645,173.691168 304.332958,171.953814 C305.888272,170.21646 308.125595,169.347796 311.044994,169.347796 C312.090369,169.347796 313.173973,169.452297 314.295838,169.661302 L314.295838,162 L319,162 L319,183.259622 C319,185.101479 318.321154,186.685321 316.963442,188.011197 C315.60573,189.337072 313.530948,190 310.739033,190 C310.088861,190 309.441885,189.94775 308.798088,189.843247 C308.15429,189.738745 307.402142,189.46443 306.54162,189.020294 C305.681098,188.576158 304.932137,188.001403 304.294713,187.296011 C303.65729,186.590619 303.115488,185.555407 302.669291,184.190343 C302.223095,182.825279 302,181.247968 302,179.458362 Z M307,179.189522 C307,181.593232 307.315698,183.329219 307.947103,184.397535 C308.578509,185.46585 309.680093,186 311.251889,186 C313.750642,186 315,185.265544 315,183.79661 L315,173.340524 C314.032741,173.126861 312.94459,173.013354 311.735516,173 C310.190588,173 309.015117,173.457366 308.209068,174.372111 C307.403019,175.286856 307,176.892644 307,179.189522 Z M348.980695,170 L354,170 L347.011583,190 L342.262548,190 L339.019305,178.493151 L335.737452,190 L330.988417,190 L324,170 L329.019305,170 L333.208494,184.422701 L336.972973,170 L341.046332,170 L344.791506,184.422701 L348.980695,170 Z M365,190 L360,190 L360,170 L365,170 L365,190 Z M365,167 L360,167 L360,163 L365,163 L365,167 Z M381.156182,170 C383.92843,170 386.095437,170.716114 387.657267,172.148362 C389.219097,173.580611 390,175.587656 390,178.169557 L390,190 L385.236443,190 L385.236443,177.764933 C385.236443,177.238276 385.187636,176.798332 385.090022,176.445087 C384.992407,176.091842 384.797182,175.722545 384.504338,175.337187 C384.211495,174.951829 383.733192,174.662814 383.069414,174.470135 C382.405637,174.277456 381.553151,174.181118 380.511931,174.181118 C379.340558,174.181118 378.104128,174.296723 376.802603,174.527938 L376.802603,190 L372,190 L372,172.157996 C374.928431,170.719325 377.980461,170 381.156182,170 Z M431.702622,163 L437,163 L437,190 L432.228464,190 L432.228464,170.036603 L424.009738,181.97511 L415.791011,170.036603 L415.791011,190 L411,190 L411,163 L416.316854,163 L424.009738,174.286237 L431.702622,163 Z M451.167051,169 C454.026512,169 456.21351,169.740505 457.728111,171.221537 C459.242711,172.702569 460,174.844388 460,177.647059 L460,183.14611 C460,185.018985 459.311259,186.6295 457.933756,187.977704 C456.556253,189.325908 454.437802,190 451.578341,190 C448.640538,190 446.476389,189.322587 445.085829,187.967742 C443.69527,186.612896 443,184.965854 443,183.026565 C443,182.614799 443.03917,182.193076 443.117512,181.761385 C443.195853,181.329694 443.401496,180.788428 443.734447,180.137571 C444.067398,179.486714 444.521118,178.915562 445.095622,178.424099 C445.670126,177.932635 446.518812,177.510913 447.641705,177.158918 C448.764599,176.806924 450.089854,176.63093 451.617512,176.63093 C452.714291,176.63093 453.889395,176.723908 455.142857,176.909867 C455.142857,174.346287 453.726205,173.064516 450.892857,173.064516 C448.64707,173.064516 446.695093,173.409864 445.036866,174.100569 L445.036866,170.135674 C446.877889,169.378554 448.921264,169 451.167051,169 Z M455,182.868625 L455,180.262621 C453.941068,180.101007 453.036064,180.013468 452.28496,180 C449.440619,180 448.012313,180.895595 448,182.686811 C448,184.895529 449.188203,185.999871 451.564644,185.999871 C453.854893,186.013339 455,184.969601 455,182.868625 Z M466,172.080925 C466.326799,171.926782 466.777775,171.743739 467.352941,171.531792 C467.928107,171.319845 469.084959,171.017985 470.823529,170.626204 C472.5621,170.234423 474.287573,170.025691 476,170 L476,174.104046 C473.986918,174.129737 472.261445,174.348103 470.823529,174.759152 L470.823529,190 L466,190 L466,172.080925 Z M491,173.965465 L486.233333,173.965465 L486.233333,183.737049 C486.233333,184.590128 486.413887,185.165302 486.775,185.462587 C487.136113,185.759872 487.776258,185.908513 488.695455,185.908513 C489.562126,185.908513 490.3303,185.766335 491,185.481975 L491,189.417752 C490.028278,189.818441 488.964652,190.01232 487.809091,189.999394 C485.813121,189.999394 484.243945,189.417758 483.101515,188.254468 C481.959085,187.091179 481.387879,185.488448 481.387879,183.446228 L481.387879,173.965465 L478,173.965465 L478,169.874583 L481.387879,169.874583 L481.387879,164 L486.233333,164 L486.233333,169.874583 L491,169.874583 L491,173.965465 Z M501,190 L496,190 L496,170 L501,170 L501,190 Z M501,167 L496,167 L496,163 L501,163 L501,167 Z M517.156182,170 C519.92843,170 522.095437,170.716114 523.657267,172.148362 C525.219097,173.580611 526,175.587656 526,178.169557 L526,190 L521.236443,190 L521.236443,177.764933 C521.236443,177.238276 521.187636,176.798332 521.090022,176.445087 C520.992407,176.091842 520.797182,175.722545 520.504338,175.337187 C520.211495,174.951829 519.733192,174.662814 519.069414,174.470135 C518.405637,174.277456 517.553151,174.181118 516.511931,174.181118 C515.340558,174.181118 514.104128,174.296723 512.802603,174.527938 L512.802603,190 L508,190 L508,172.157996 C510.928431,170.719325 513.980461,170 517.156182,170 Z M279,206 L293,206 L293,209.559297 L282.90034,209.559297 L282.90034,215.131772 L291.636467,215.131772 L291.636467,218.868228 L282.90034,218.868228 L282.90034,228 L279,228 L279,206 Z M297,213.768786 C297.261439,213.637764 297.62222,213.482178 298.082353,213.302023 C298.542486,213.121868 299.467967,212.865287 300.858824,212.532274 C302.24968,212.19926 303.630059,212.021837 305,212 L305,215.488439 C303.389534,215.510276 302.009156,215.695888 300.858824,216.045279 L300.858824,229 L297,229 L297,213.768786 Z M317.411829,225.60322 C319.383361,225.60322 321.289147,225.179297 323.129244,224.331439 L323.129244,227.518939 C321.267242,228.506318 319.158829,229 316.803943,229 C316.059142,229 315.358163,228.940973 314.700986,228.822917 C314.043808,228.704861 313.356521,228.45802 312.639102,228.082386 C311.921683,227.706753 311.30285,227.22917 310.782585,226.649621 C310.262319,226.070073 309.83516,225.26784 309.501095,224.242898 C309.16703,223.217956 309,222.034729 309,220.693182 C309,218.053017 309.599665,215.944137 310.799014,214.366477 C311.998363,212.788818 313.901411,212 316.508215,212 C318.97263,212 320.837343,212.767353 322.10241,214.302083 C323.367476,215.836813 324,217.725683 324,219.96875 C324,220.891734 323.978094,221.57323 323.934283,222.013258 L313.140197,222.013258 C313.249727,223.440664 313.6851,224.395831 314.446331,224.878788 C315.207561,225.361745 316.196051,225.60322 317.411829,225.60322 Z M318.929612,216.15873 C318.340612,215.38624 317.525086,215 316.48301,215 C315.440933,215 314.628239,215.314812 314.044903,215.944444 C313.461567,216.574077 313.113269,217.592586 313,219 L320,219 C319.886731,217.878301 319.529938,216.931221 318.929612,216.15873 Z M335.411829,225.60322 C337.383361,225.60322 339.289147,225.179297 341.129244,224.331439 L341.129244,227.518939 C339.267242,228.506318 337.158829,229 334.803943,229 C334.059142,229 333.358163,228.940973 332.700986,228.822917 C332.043808,228.704861 331.356521,228.45802 330.639102,228.082386 C329.921683,227.706753 329.30285,227.22917 328.782585,226.649621 C328.262319,226.070073 327.83516,225.26784 327.501095,224.242898 C327.16703,223.217956 327,222.034729 327,220.693182 C327,218.053017 327.599665,215.944137 328.799014,214.366477 C329.998363,212.788818 331.901411,212 334.508215,212 C336.97263,212 338.837343,212.767353 340.10241,214.302083 C341.367476,215.836813 342,217.725683 342,219.96875 C342,220.891734 341.978094,221.57323 341.934283,222.013258 L331.140197,222.013258 C331.249727,223.440664 331.6851,224.395831 332.446331,224.878788 C333.207561,225.361745 334.196051,225.60322 335.411829,225.60322 Z M336.929612,216.15873 C336.340612,215.38624 335.525086,215 334.48301,215 C333.440933,215 332.628239,215.314812 332.044903,215.944444 C331.461567,216.574077 331.113269,217.592586 331,219 L338,219 C337.886731,217.878301 337.529938,216.931221 336.929612,216.15873 Z M351,229 L347,229 L347,206 L351,206 L351,229 Z M362.725806,212 C365.080657,212 366.881714,212.599456 368.129032,213.798387 C369.37635,214.997318 370,216.731171 370,219 L370,223.451613 C370,224.96775 369.432801,226.2715 368.298387,227.362903 C367.163973,228.454307 365.419367,229 363.064516,229 C360.645149,229 358.862909,228.451618 357.717742,227.354839 C356.572575,226.258059 356,224.924739 356,223.354839 C356,223.021504 356.032258,222.680109 356.096774,222.330645 C356.161291,221.981181 356.330644,221.543013 356.604839,221.016129 C356.879034,220.489245 357.252686,220.026884 357.725806,219.629032 C358.198927,219.231181 358.897845,218.889786 359.822581,218.604839 C360.747316,218.319891 361.838703,218.177419 363.096774,218.177419 C364,218.177419 364.967737,218.252687 366,218.403226 C366,216.327947 364.833345,215.290323 362.5,215.290323 C360.650528,215.290323 359.043018,215.56989 357.677419,216.129032 L357.677419,212.919355 C359.193556,212.306449 360.876335,212 362.725806,212 Z M366,222.390521 L366,220.218851 C365.092344,220.084173 364.316626,220.011223 363.672823,220 C361.234816,220 360.010554,220.746329 360,222.239009 C360,224.079607 361.018459,224.999893 363.055409,224.999893 C365.018479,225.011116 366,224.141334 366,222.390521 Z M382.630152,212 C384.940359,212 386.746197,212.608697 388.047722,213.826108 C389.349247,215.043519 390,216.749507 390,218.944123 L390,229 L386.030369,229 L386.030369,218.600193 C386.030369,218.152535 385.989697,217.778582 385.908351,217.478324 C385.827006,217.178065 385.664318,216.864163 385.420282,216.536609 C385.176246,216.209054 384.77766,215.963392 384.224512,215.799615 C383.671364,215.635837 382.960959,215.55395 382.093275,215.55395 C381.117132,215.55395 380.086773,215.652215 379.002169,215.848748 L379.002169,229 L375,229 L375,213.834297 C377.440359,212.611426 379.983718,212 382.630152,212 Z M399.11054,220.516129 C399.11054,222.494634 399.49207,223.836018 400.255141,224.540323 C401.018213,225.244627 402.185082,225.596774 403.755784,225.596774 C405.17053,225.596774 406.585254,225.322583 408,224.774194 L408,228.080645 C406.384739,228.693551 404.741654,229 403.070694,229 C400.475137,229 398.481155,228.268825 397.088689,226.806452 C395.696223,225.344079 395,223.247325 395,220.516129 C395,217.763427 395.696223,215.655921 397.088689,214.193548 C398.481155,212.731175 400.475137,212 403.070694,212 C404.741654,212 406.384739,212.306449 408,212.919355 L408,216.225806 C406.652093,215.698922 405.237368,215.435484 403.755784,215.435484 C402.185082,215.435484 401.018213,215.782255 400.255141,216.475806 C399.49207,217.169358 399.11054,218.516119 399.11054,220.516129 Z M419.411829,225.60322 C421.383361,225.60322 423.289147,225.179297 425.129244,224.331439 L425.129244,227.518939 C423.267242,228.506318 421.158829,229 418.803943,229 C418.059142,229 417.358163,228.940973 416.700986,228.822917 C416.043808,228.704861 415.356521,228.45802 414.639102,228.082386 C413.921683,227.706753 413.30285,227.22917 412.782585,226.649621 C412.262319,226.070073 411.83516,225.26784 411.501095,224.242898 C411.16703,223.217956 411,222.034729 411,220.693182 C411,218.053017 411.599665,215.944137 412.799014,214.366477 C413.998363,212.788818 415.901411,212 418.508215,212 C420.97263,212 422.837343,212.767353 424.10241,214.302083 C425.367476,215.836813 426,217.725683 426,219.96875 C426,220.891734 425.978094,221.57323 425.934283,222.013258 L415.140197,222.013258 C415.249727,223.440664 415.6851,224.395831 416.446331,224.878788 C417.207561,225.361745 418.196051,225.60322 419.411829,225.60322 Z M420.929612,216.15873 C420.340612,215.38624 419.525086,215 418.48301,215 C417.440933,215 416.628239,215.314812 416.044903,215.944444 C415.461567,216.574077 415.113269,217.592586 415,219 L422,219 C421.886731,217.878301 421.529938,216.931221 420.929612,216.15873 Z M450.076336,208.165284 C449.001521,208.165284 448.22901,208.409172 447.758779,208.896957 C447.288547,209.384742 447.053435,210.333787 447.053435,211.744122 L451,211.744122 L451,215.100277 L447.053435,215.100277 L447.053435,228 L442.922137,228 L442.922137,215.100277 L440,215.100277 L440,211.744122 L442.922137,211.744122 C442.944529,207.248018 445.077332,205 449.320611,205 C449.869214,205 450.429005,205.053019 451,205.159059 L451,208.228907 C450.585749,208.186491 450.277864,208.165284 450.076336,208.165284 Z M453,213.768786 C453.261439,213.637764 453.62222,213.482178 454.082353,213.302023 C454.542486,213.121868 455.467967,212.865287 456.858824,212.532274 C458.24968,212.19926 459.630059,212.021837 461,212 L461,215.488439 C459.389534,215.510276 458.009156,215.695888 456.858824,216.045279 L456.858824,229 L453,229 L453,213.768786 Z M466.068252,214.197719 C467.447094,212.732566 469.424324,212 472,212 C474.575676,212 476.552906,212.732566 477.931748,214.197719 C479.310589,215.662872 480,217.763611 480,220.5 C480,223.236389 479.310589,225.337128 477.931748,226.802281 C476.552906,228.267434 474.575676,229 472,229 C469.424324,229 467.447094,228.267434 466.068252,226.802281 C464.689411,225.337128 464,223.236389 464,220.5 C464,217.763611 464.689411,215.662872 466.068252,214.197719 Z M468.976842,224.87963 C469.639302,225.626547 470.649818,226 472.008421,226 C473.367024,226 474.371927,225.623718 475.023158,224.871142 C475.674389,224.118566 476,222.664363 476,220.508488 C476,218.352613 475.674389,216.89558 475.023158,216.137346 C474.371927,215.379111 473.367024,215 472.008421,215 C470.649818,215 469.642109,215.379111 468.985263,216.137346 C468.328418,216.89558 468,218.352613 468,220.508488 C468,222.664363 468.325611,224.121395 468.976842,224.87963 Z M491.630152,212 C493.940359,212 495.746197,212.608697 497.047722,213.826108 C498.349247,215.043519 499,216.749507 499,218.944123 L499,229 L495.030369,229 L495.030369,218.600193 C495.030369,218.152535 494.989697,217.778582 494.908351,217.478324 C494.827006,217.178065 494.664318,216.864163 494.420282,216.536609 C494.176246,216.209054 493.77766,215.963392 493.224512,215.799615 C492.671364,215.635837 491.960959,215.55395 491.093275,215.55395 C490.117132,215.55395 489.086773,215.652215 488.002169,215.848748 L488.002169,229 L484,229 L484,213.834297 C486.440359,212.611426 488.983718,212 491.630152,212 Z M514,215.432317 L509.966667,215.432317 L509.966667,223.70058 C509.966667,224.422416 510.119443,224.909102 510.425,225.160651 C510.730557,225.4122 511.272218,225.537972 512.05,225.537972 C512.783337,225.537972 513.433331,225.417668 514,225.177056 L514,228.507329 C513.177774,228.846373 512.277783,229.010424 511.3,228.999487 C509.611103,228.999487 508.283338,228.507334 507.316667,227.523012 C506.349995,226.53869 505.866667,225.182533 505.866667,223.454501 L505.866667,215.432317 L503,215.432317 L503,211.970801 L505.866667,211.970801 L505.866667,207 L509.966667,207 L509.966667,211.970801 L514,211.970801 L514,215.432317 Z M525.411829,225.60322 C527.383361,225.60322 529.289147,225.179297 531.129244,224.331439 L531.129244,227.518939 C529.267242,228.506318 527.158829,229 524.803943,229 C524.059142,229 523.358163,228.940973 522.700986,228.822917 C522.043808,228.704861 521.356521,228.45802 520.639102,228.082386 C519.921683,227.706753 519.30285,227.22917 518.782585,226.649621 C518.262319,226.070073 517.83516,225.26784 517.501095,224.242898 C517.16703,223.217956 517,222.034729 517,220.693182 C517,218.053017 517.599665,215.944137 518.799014,214.366477 C519.998363,212.788818 521.901411,212 524.508215,212 C526.97263,212 528.837343,212.767353 530.10241,214.302083 C531.367476,215.836813 532,217.725683 532,219.96875 C532,220.891734 531.978094,221.57323 531.934283,222.013258 L521.140197,222.013258 C521.249727,223.440664 521.6851,224.395831 522.446331,224.878788 C523.207561,225.361745 524.196051,225.60322 525.411829,225.60322 Z M526.929612,216.15873 C526.340612,215.38624 525.525086,215 524.48301,215 C523.440933,215 522.628239,215.314812 522.044903,215.944444 C521.461567,216.574077 521.113269,217.592586 521,219 L528,219 C527.886731,217.878301 527.529938,216.931221 526.929612,216.15873 Z M543.630152,212 C545.940359,212 547.746197,212.608697 549.047722,213.826108 C550.349247,215.043519 551,216.749507 551,218.944123 L551,229 L547.030369,229 L547.030369,218.600193 C547.030369,218.152535 546.989697,217.778582 546.908351,217.478324 C546.827006,217.178065 546.664318,216.864163 546.420282,216.536609 C546.176246,216.209054 545.77766,215.963392 545.224512,215.799615 C544.671364,215.635837 543.960959,215.55395 543.093275,215.55395 C542.117132,215.55395 541.086773,215.652215 540.002169,215.848748 L540.002169,229 L536,229 L536,213.834297 C538.440359,212.611426 540.983718,212 543.630152,212 Z M557,220.340798 C557,217.658256 557.640414,215.603459 558.92126,214.176347 C560.202106,212.749235 562.044607,212.035689 564.448819,212.035689 C565.309716,212.035689 566.202095,212.121529 567.125984,212.293212 L567.125984,206 L571,206 L571,223.463261 C571,224.976215 570.44095,226.277228 569.322835,227.36634 C568.204719,228.455452 566.496074,229 564.19685,229 C563.661415,229 563.128612,228.95708 562.598425,228.871239 C562.068239,228.785397 561.448822,228.560067 560.740157,228.195241 C560.031493,227.830416 559.414701,227.358295 558.889764,226.778866 C558.364827,226.199437 557.918637,225.349084 557.551181,224.227782 C557.183725,223.106479 557,221.810831 557,220.340798 Z M561,220.237288 C561,222.271197 561.236773,223.740108 561.710327,224.644068 C562.183881,225.548027 563.01007,226 564.188917,226 C566.062982,226 567,225.378537 567,224.135593 L567,215.288136 C566.274556,215.107344 565.458443,215.011299 564.551637,215 C563.392941,215 562.511338,215.387002 561.906801,216.161017 C561.302264,216.935032 561,218.293776 561,220.237288 Z M594.411829,225.60322 C596.383361,225.60322 598.289147,225.179297 600.129244,224.331439 L600.129244,227.518939 C598.267242,228.506318 596.158829,229 593.803943,229 C593.059142,229 592.358163,228.940973 591.700986,228.822917 C591.043808,228.704861 590.356521,228.45802 589.639102,228.082386 C588.921683,227.706753 588.30285,227.22917 587.782585,226.649621 C587.262319,226.070073 586.83516,225.26784 586.501095,224.242898 C586.16703,223.217956 586,222.034729 586,220.693182 C586,218.053017 586.599665,215.944137 587.799014,214.366477 C588.998363,212.788818 590.901411,212 593.508215,212 C595.97263,212 597.837343,212.767353 599.10241,214.302083 C600.367476,215.836813 601,217.725683 601,219.96875 C601,220.891734 600.978094,221.57323 600.934283,222.013258 L590.140197,222.013258 C590.249727,223.440664 590.6851,224.395831 591.446331,224.878788 C592.207561,225.361745 593.196051,225.60322 594.411829,225.60322 Z M595.929612,216.15873 C595.340612,215.38624 594.525086,215 593.48301,215 C592.440933,215 591.628239,215.314812 591.044903,215.944444 C590.461567,216.574077 590.113269,217.592586 590,219 L597,219 C596.886731,217.878301 596.529938,216.931221 595.929612,216.15873 Z M613.630152,212 C615.940359,212 617.746197,212.608697 619.047722,213.826108 C620.349247,215.043519 621,216.749507 621,218.944123 L621,229 L617.030369,229 L617.030369,218.600193 C617.030369,218.152535 616.989697,217.778582 616.908351,217.478324 C616.827006,217.178065 616.664318,216.864163 616.420282,216.536609 C616.176246,216.209054 615.77766,215.963392 615.224512,215.799615 C614.671364,215.635837 613.960959,215.55395 613.093275,215.55395 C612.117132,215.55395 611.086773,215.652215 610.002169,215.848748 L610.002169,229 L606,229 L606,213.834297 C608.440359,212.611426 610.983718,212 613.630152,212 Z M633.211137,212 C635.539068,212 637.252508,212.522843 638.351508,213.568546 C639.450508,214.614248 640,215.88401 640,217.377871 L640,229.013918 C640,229.536769 639.951277,230.032937 639.853828,230.502436 C639.75638,230.971935 639.550659,231.494778 639.236659,232.070981 C638.922659,232.647185 638.505803,233.138017 637.986079,233.543493 C637.466355,233.94897 636.735504,234.293086 635.793503,234.575852 C634.851503,234.858619 633.757934,235 632.512761,235 C630.758692,235 629.161647,234.781259 627.721578,234.343772 L627.721578,230.838553 C629.053371,231.27604 630.498832,231.494781 632.058005,231.494781 C632.989177,231.494781 633.747097,231.425424 634.331787,231.286708 C634.916476,231.147993 635.314384,230.929252 635.525522,230.63048 C635.73666,230.331708 635.869296,230.078289 635.923434,229.870216 C635.977572,229.662142 636.00464,229.376713 636.00464,229.013918 L636.00464,228.117606 C635.116778,228.288333 634.277653,228.37903 633.487239,228.389701 C631.072687,228.389701 629.221197,227.701468 627.932715,226.324983 C626.644232,224.948497 626,222.969162 626,220.386917 C626,218.946409 626.18948,217.689984 626.568445,216.617606 C626.947411,215.545228 627.396749,214.726284 627.916473,214.160752 C628.436197,213.595219 629.050654,213.136397 629.759861,212.784273 C630.469068,212.432149 631.088938,212.213408 631.61949,212.128045 C632.150041,212.042681 632.680585,212 633.211137,212 Z M636,224.768215 L636,216.887533 C636,215.618229 635.07028,214.989105 633.210811,215.000143 C632.151346,215.000143 631.351354,215.394725 630.810811,216.183901 C630.270268,216.973077 630,218.283751 630,220.115964 C630,222.014401 630.297294,223.303001 630.891892,223.981803 C631.486489,224.660604 632.394588,225 633.616216,225 C634.427031,225 635.221618,224.922739 636,224.768215 Z M649,229 L645,229 L645,212 L649,212 L649,229 Z M649,210 L645,210 L645,206 L649,206 L649,210 Z M662.630152,212 C664.940359,212 666.746197,212.608697 668.047722,213.826108 C669.349247,215.043519 670,216.749507 670,218.944123 L670,229 L666.030369,229 L666.030369,218.600193 C666.030369,218.152535 665.989697,217.778582 665.908351,217.478324 C665.827006,217.178065 665.664318,216.864163 665.420282,216.536609 C665.176246,216.209054 664.77766,215.963392 664.224512,215.799615 C663.671364,215.635837 662.960959,215.55395 662.093275,215.55395 C661.117132,215.55395 660.086773,215.652215 659.002169,215.848748 L659.002169,229 L655,229 L655,213.834297 C657.440359,212.611426 659.983718,212 662.630152,212 Z M683.411829,225.60322 C685.383361,225.60322 687.289147,225.179297 689.129244,224.331439 L689.129244,227.518939 C687.267242,228.506318 685.158829,229 682.803943,229 C682.059142,229 681.358163,228.940973 680.700986,228.822917 C680.043808,228.704861 679.356521,228.45802 678.639102,228.082386 C677.921683,227.706753 677.30285,227.22917 676.782585,226.649621 C676.262319,226.070073 675.83516,225.26784 675.501095,224.242898 C675.16703,223.217956 675,222.034729 675,220.693182 C675,218.053017 675.599665,215.944137 676.799014,214.366477 C677.998363,212.788818 679.901411,212 682.508215,212 C684.97263,212 686.837343,212.767353 688.10241,214.302083 C689.367476,215.836813 690,217.725683 690,219.96875 C690,220.891734 689.978094,221.57323 689.934283,222.013258 L679.140197,222.013258 C679.249727,223.440664 679.6851,224.395831 680.446331,224.878788 C681.207561,225.361745 682.196051,225.60322 683.411829,225.60322 Z M684.929612,216.15873 C684.340612,215.38624 683.525086,215 682.48301,215 C681.440933,215 680.628239,215.314812 680.044903,215.944444 C679.461567,216.574077 679.113269,217.592586 679,219 L686,219 C685.886731,217.878301 685.529938,216.931221 684.929612,216.15873 Z M701.411829,225.60322 C703.383361,225.60322 705.289147,225.179297 707.129244,224.331439 L707.129244,227.518939 C705.267242,228.506318 703.158829,229 700.803943,229 C700.059142,229 699.358163,228.940973 698.700986,228.822917 C698.043808,228.704861 697.356521,228.45802 696.639102,228.082386 C695.921683,227.706753 695.30285,227.22917 694.782585,226.649621 C694.262319,226.070073 693.83516,225.26784 693.501095,224.242898 C693.16703,223.217956 693,222.034729 693,220.693182 C693,218.053017 693.599665,215.944137 694.799014,214.366477 C695.998363,212.788818 697.901411,212 700.508215,212 C702.97263,212 704.837343,212.767353 706.10241,214.302083 C707.367476,215.836813 708,217.725683 708,219.96875 C708,220.891734 707.978094,221.57323 707.934283,222.013258 L697.140197,222.013258 C697.249727,223.440664 697.6851,224.395831 698.446331,224.878788 C699.207561,225.361745 700.196051,225.60322 701.411829,225.60322 Z M702.929612,216.15873 C702.340612,215.38624 701.525086,215 700.48301,215 C699.440933,215 698.628239,215.314812 698.044903,215.944444 C697.461567,216.574077 697.113269,217.592586 697,219 L704,219 C703.886731,217.878301 703.529938,216.931221 702.929612,216.15873 Z M713,213.768786 C713.261439,213.637764 713.62222,213.482178 714.082353,213.302023 C714.542486,213.121868 715.467967,212.865287 716.858824,212.532274 C718.24968,212.19926 719.630059,212.021837 721,212 L721,215.488439 C719.389534,215.510276 718.009156,215.695888 716.858824,216.045279 L716.858824,229 L713,229 L713,213.768786 Z"/>

	<g>
    <path id="swirl1" d="M-275 244 C -68 340, 18 340, 225 244 C 432 148, 518 148, 725 244 C 932 340, 1018 340, 1225 244 C 1432 148, 1518 148, 1725 244 C 1932 340, 2018 340, 2225 244 C 2432 148, 2518 148, 2725 244"
          stroke-width="275" fill="transparent" stroke="hsla(78, 73.9%, 37%, 0.202)"
          style="transform: translate(-55.96px);"></path>
    <path id="swirl2" d="M-146 289 C -1.1 333, 59.1 333, 204 289 C 348.9 245, 409.1 245, 554 289 C 698.9 333, 759.1 333, 904 289 C 1048.9 245, 1109.1 245, 1254 289 C 1398.9 333, 1459.1 333, 1604 289 C 1748.9 245, 1809.1 245, 1954 289 C 2098.9 333, 2159.1 333, 2304 289 C 2448.9 245, 2509.1 245, 2654 289"
          stroke-width="146" fill="transparent" stroke="hsla(53, 57.4%, 21.9%, 0.296)"
          style="transform: translate(-170.678px);"></path>
    <path id="swirl3" d="M-40 177 C 125.6 210, 194.4 210, 360 177 C 525.6 144, 594.4 144, 760 177 C 925.6 210, 994.4 210, 1160 177 C 1325.6 144, 1394.4 144, 1560 177 C 1725.6 210, 1794.4 210, 1960 177 C 2125.6 144, 2194.4 144, 2360 177 C 2525.6 210, 2594.4 210, 2760 177 C 2925.6 144, 2994.4 144, 3160 177"
          stroke-width="40" fill="transparent" stroke="hsla(26, 100%, 54.9%, 0.346)"
          style="transform: translate(-33.576px);"></path>
    </g>
</svg>
